<?xml version="1.0" encoding="UTF-8" standalone="no"?>
<svg width="19px" height="30px" viewBox="0 0 19 30" version="1.1" xmlns="http://www.w3.org/2000/svg" xmlns:xlink="http://www.w3.org/1999/xlink">
    <!-- Generator: Sketch 39.1 (31720) - http://www.bohemiancoding.com/sketch -->
    <title>Shape</title>
    <desc>Created with Sketch.</desc>
    <defs></defs>
    <g id="Page-1" stroke="none" stroke-width="1" fill="none" fill-rule="evenodd">
        <g id="Artboard" transform="translate(-16.000000, -10.000000)" fill="#000000">
            <path d="M33.5594342,40 C33.4410818,40 33.3215518,39.9617268 33.220864,39.8822364 L16.2087405,26.4866318 C16.0827335,26.3871216 16.006776,26.2375619 16.000299,26.0762258 C15.9949997,25.9160674 16.0603584,25.7612083 16.1787108,25.6534547 L33.1908343,10.1428166 C33.4139962,9.93849678 33.7602211,9.95616132 33.9627744,10.1781456 C34.1665053,10.4013076 34.1506073,10.7475324 33.9274453,10.9500857 L17.3922643,26.0261763 L33.8985933,39.0237401 C34.1358868,39.2103953 34.1765152,39.5542649 33.9892712,39.7915585 C33.8809287,39.9281642 33.7207703,40 33.5594342,40 L33.5594342,40 Z" id="Shape" transform="translate(25.053463, 25.000000) scale(-1, 1) translate(-25.053463, -25.000000) "></path>
        </g>
    </g>
</svg>