<?xml version="1.0" encoding="utf-8"?>
<!-- Generator: Adobe Illustrator 16.0.0, SVG Export Plug-In . SVG Version: 6.00 Build 0)  -->
<!DOCTYPE svg PUBLIC "-//W3C//DTD SVG 1.1//EN" "http://www.w3.org/Graphics/SVG/1.1/DTD/svg11.dtd">
<svg version="1.1" id="Capa_1" xmlns="http://www.w3.org/2000/svg" xmlns:xlink="http://www.w3.org/1999/xlink" x="0px" y="0px"
	 width="30px" height="30px" viewBox="0 0 30 30" enable-background="new 0 0 30 30" xml:space="preserve">
<g>
	<path fill="#009966" d="M15,0C6.716,0,0,6.716,0,15s6.716,15,15,15s15-6.716,15-15S23.284,0,15,0z M17.334,20.895l-1.772-1.771
		l3.511-3.511H8.908v6.146H6.357v-8.697h2.051h10.577l-3.424-3.424l1.419-1.419l0.354-0.354l6.516,6.516L17.334,20.895z"/>
	<polygon fill="#FFFFFF" points="16.98,8.218 15.562,9.637 18.985,13.061 8.408,13.061 6.357,13.061 6.357,21.758 8.908,21.758 
		8.908,15.612 19.072,15.612 15.562,19.123 17.334,20.895 23.85,14.38 17.334,7.864 	"/>
</g>
</svg>
