<?xml version="1.0" encoding="UTF-8" standalone="no"?>
<svg width="44px" height="42px" viewBox="0 0 44 42" version="1.1" xmlns="http://www.w3.org/2000/svg" xmlns:xlink="http://www.w3.org/1999/xlink">
    <!-- Generator: Sketch 39.1 (31720) - http://www.bohemiancoding.com/sketch -->
    <title>Group 37</title>
    <desc>Created with Sketch.</desc>
    <defs></defs>
    <g id="DESKTOP" stroke="none" stroke-width="1" fill="none" fill-rule="evenodd">
        <g id="HOME" transform="translate(-378.000000, -3559.000000)" fill="#FFA100">
            <g id="Group-37" transform="translate(378.000000, 3559.000000)">
                <path d="M22.7631665,28.8344441 L11.2348191,28.8344441 C5.33225437,28.8344441 0.53151585,24.0302939 0.53151585,18.1266283 C0.53151585,15.2543169 1.65349097,12.5686156 3.68958948,10.5657377 C5.67796693,8.5448349 8.36519278,7.42199334 11.2369401,7.42199334 L22.7642269,7.42199334 L22.7642269,10.4225992 L11.2369401,10.4225992 C9.17432985,10.4225992 7.2453386,11.2284156 5.81052543,12.6841866 C4.33223307,14.1335959 3.53476116,16.0611936 3.53476116,18.125568 C3.53476116,22.3762496 6.99294722,25.8348985 11.2369401,25.8348985 L22.7642269,25.8348985 L22.7631665,28.8344441 L22.7631665,28.8344441 L22.7631665,28.8344441 Z" id="Shape"></path>
                <path d="M43.823,37.8479249 L31.2850871,28.8916995 L31.2850871,8.93501969 L43.823,0 L43.823,37.8479249 L43.823,37.8479249 Z M34.2819696,27.3511057 L40.8208152,32.0184792 L40.8208152,5.82308391 L34.2819696,10.485156 L34.2819696,27.3511057 L34.2819696,27.3511057 Z" id="Shape"></path>
                <path d="M34.203495,28.8344441 L20.6804074,28.8344441 L20.6804074,7.42199334 L34.203495,7.42199334 L34.203495,28.8344441 L34.203495,28.8344441 Z M23.6836527,25.8359588 L31.2066125,25.8359588 L31.2066125,10.4225992 L23.6836527,10.4225992 L23.6836527,25.8359588 L23.6836527,25.8359588 Z" id="Shape"></path>
                <path d="M16.5774568,42 C13.5752719,42 11.1361956,39.5581642 11.1361956,36.5511966 L11.1361956,26.5071191 L22.0272017,26.5071191 L22.0272017,36.5511966 C22.0229598,39.5592245 19.5817626,42 16.5774568,42 L16.5774568,42 Z M14.1330781,29.5066646 L14.1330781,36.5522569 C14.1330781,37.90412 15.2285415,39.0036353 16.5763963,39.0036353 C17.9231906,39.0036353 19.0228959,37.90412 19.0228959,36.5522569 L19.0228959,29.5066646 L14.1330781,29.5066646 L14.1330781,29.5066646 Z" id="Shape"></path>
            </g>
        </g>
    </g>
</svg>