<?xml version="1.0" encoding="utf-8"?>
<!-- Generator: Adobe Illustrator 16.0.0, SVG Export Plug-In . SVG Version: 6.00 Build 0)  -->
<!DOCTYPE svg PUBLIC "-//W3C//DTD SVG 1.1//EN" "http://www.w3.org/Graphics/SVG/1.1/DTD/svg11.dtd">
<svg version="1.1" id="Capa_1" xmlns="http://www.w3.org/2000/svg" xmlns:xlink="http://www.w3.org/1999/xlink" x="0px" y="0px"
	 width="32px" height="26px" viewBox="0 0 32 26" enable-background="new 0 0 32 26" xml:space="preserve">
<g>
	<path d="M13.555,20.521c-1.433,0-2.592,1.102-2.592,2.489s1.159,2.489,2.592,2.489c0.588,0,1.13-0.186,1.564-0.5h0.091v-0.068
		c0.573-0.455,0.938-1.144,0.938-1.921C16.189,21.639,15.001,20.521,13.555,20.521z"/>
	<path d="M31.879,4.582c-0.021-0.132-0.068-0.259-0.136-0.382l0.003-0.001c-0.011-0.02-0.029-0.03-0.041-0.049
		c-0.002-0.004-0.006-0.007-0.008-0.011l0.043-0.158h-0.16c-0.013-0.013-0.017-0.028-0.03-0.041l-0.011,0.011
		c-0.14-0.141-0.3-0.255-0.486-0.306C30.911,3.604,30.836,3.6,30.694,3.6H14.12c-0.641,0-1.199,0.531-1.199,1.189
		s0.558,1.189,1.199,1.189h14.998l-2.242,8.168H12.304L8.287,0.897C8.172,0.311,7.63,0,7.112,0H1.199C0.569,0,0,0.48,0,1.189
		c0,0.659,0.559,1.189,1.199,1.189h5.036l4.004,13.309c0.181,0.52,0.604,0.871,1.157,0.871h16.408c0.554,0,0.977-0.352,1.143-0.828
		l2.911-10.646l0.035-0.129V4.821C31.895,4.753,31.893,4.672,31.879,4.582z"/>
	<path d="M26.443,20.521c-1.434,0-2.593,1.102-2.593,2.489c0,0.729,0.321,1.381,0.833,1.834V25h0.195
		c0.434,0.314,0.977,0.5,1.564,0.5c1.433,0,2.592-1.102,2.592-2.489S27.876,20.521,26.443,20.521z"/>
</g>
</svg>
