<?xml version="1.0" encoding="UTF-8" standalone="no"?>
<svg width="24px" height="24px" viewBox="0 0 24 24" version="1.1" xmlns="http://www.w3.org/2000/svg" xmlns:xlink="http://www.w3.org/1999/xlink">
    <!-- Generator: Sketch 39.1 (31720) - http://www.bohemiancoding.com/sketch -->
    <title>1470246200_time-24</title>
    <desc>Created with Sketch.</desc>
    <defs></defs>
    <g id="DESKTOP" stroke="none" stroke-width="1" fill="none" fill-rule="evenodd">
        <g id="SUPERMERCADOS-2" transform="translate(-865.000000, -1012.000000)" fill="#8D8D8D">
            <g id="Group-18" transform="translate(542.000000, 832.000000)">
                <g id="1470246200_time-24" transform="translate(323.000000, 180.000000)">
                    <path d="M12,0 C5.375,0 0.003,5.373 0.003,12 C0.003,18.627 5.375,24 12,24 C18.626,24 23.997,18.627 23.997,12 C23.997,5.373 18.626,0 12,0 L12,0 Z M16.412,16.709 L16.062,17.059 C15.771,17.35 15.28,17.364 14.974,17.088 L10.454,13.133 C10.146,12.858 9.913,12.295 9.933,11.883 L10.352,4.749 C10.374,4.336 10.729,4 11.142,4 L11.635,4 C12.048,4 12.402,4.336 12.422,4.748 L12.765,10.682 C12.786,11.095 13.027,11.682 13.3,11.991 L16.444,15.619 C16.717,15.928 16.704,16.418 16.412,16.709 L16.412,16.709 Z" id="Shape"></path>
                </g>
            </g>
        </g>
    </g>
</svg>