<?xml version="1.0" encoding="UTF-8" standalone="no"?>
<svg width="31px" height="36px" viewBox="0 0 31 36" version="1.1" xmlns="http://www.w3.org/2000/svg" xmlns:xlink="http://www.w3.org/1999/xlink">
    <!-- Generator: Sketch 39.1 (31720) - http://www.bohemiancoding.com/sketch -->
    <title>Shape</title>
    <desc>Created with Sketch.</desc>
    <defs></defs>
    <g id="DESKTOP" stroke="none" stroke-width="1" fill="none" fill-rule="evenodd">
        <g id="CONOCENOS" transform="translate(-385.000000, -3498.000000)" fill="#FFA100">
            <path d="M388.1,3505.2 L385,3505.2 L385,3530.4 C385,3532.38 386.395,3534 388.1,3534 L409.8,3534 L409.8,3530.4 L388.1,3530.4 L388.1,3505.2 L388.1,3505.2 Z M412.9,3498 L394.3,3498 C392.595,3498 391.2,3499.62 391.2,3501.6 L391.2,3523.2 C391.2,3525.18 392.595,3526.8 394.3,3526.8 L412.9,3526.8 C414.605,3526.8 416,3525.18 416,3523.2 L416,3501.6 C416,3499.62 414.605,3498 412.9,3498 L412.9,3498 Z M411.35,3514.2 L395.85,3514.2 L395.85,3510.6 L411.35,3510.6 L411.35,3514.2 L411.35,3514.2 Z M405.15,3521.4 L395.85,3521.4 L395.85,3517.8 L405.15,3517.8 L405.15,3521.4 L405.15,3521.4 Z M411.35,3507 L395.85,3507 L395.85,3503.4 L411.35,3503.4 L411.35,3507 L411.35,3507 Z" id="Shape"></path>
        </g>
    </g>
</svg>