<?xml version="1.0" encoding="UTF-8" standalone="no"?>
<svg width="33px" height="39px" viewBox="0 0 33 39" version="1.1" xmlns="http://www.w3.org/2000/svg" xmlns:xlink="http://www.w3.org/1999/xlink">
    <!-- Generator: Sketch 39.1 (31720) - http://www.bohemiancoding.com/sketch -->
    <title>Shape</title>
    <desc>Created with Sketch.</desc>
    <defs></defs>
    <g id="DESKTOP" stroke="none" stroke-width="1" fill="none" fill-rule="evenodd">
        <g id="SALA-DE-PERNSA" transform="translate(-382.000000, -2335.000000)" fill="#FFA100">
            <path d="M410.875,2335 L386.125,2335 C383.85625,2335 382,2337.18942 382,2339.86538 L382,2369.05769 C382,2371.73365 383.85625,2373.92308 386.125,2373.92308 L410.875,2373.92308 C413.14375,2373.92308 415,2371.73365 415,2369.05769 L415,2339.86538 C415,2337.18942 413.14375,2335 410.875,2335 L410.875,2335 Z M408.8125,2356.89423 L388.1875,2356.89423 L388.1875,2352.02885 L408.8125,2352.02885 L408.8125,2356.89423 L408.8125,2356.89423 Z M400.5625,2366.625 L388.1875,2366.625 L388.1875,2361.75962 L400.5625,2361.75962 L400.5625,2366.625 L400.5625,2366.625 Z M408.8125,2347.16346 L388.1875,2347.16346 L388.1875,2342.29808 L408.8125,2342.29808 L408.8125,2347.16346 L408.8125,2347.16346 Z" id="Shape"></path>
        </g>
    </g>
</svg>