<?xml version="1.0" encoding="UTF-8" standalone="no"?>
<svg width="31px" height="25px" viewBox="0 0 31 25" version="1.1" xmlns="http://www.w3.org/2000/svg" xmlns:xlink="http://www.w3.org/1999/xlink">
    <!-- Generator: Sketch 39.1 (31720) - http://www.bohemiancoding.com/sketch -->
    <title>Shape</title>
    <desc>Created with Sketch.</desc>
    <defs></defs>
    <g id="DESKTOP" stroke="none" stroke-width="1" fill="none" fill-rule="evenodd">
        <g id="SALA-DE-PERNSA" transform="translate(-905.000000, -4100.000000)" fill="#FFFFFF">
            <g id="Group-29" transform="translate(-198.000000, 3832.000000)">
                <g id="Group-22" transform="translate(715.000000, 105.000000)">
                    <g id="Group-19">
                        <g id="Group-27">
                            <g id="Group-25" transform="translate(0.000000, 70.000000)">
                                <g id="Group-24" transform="translate(43.000000, 89.000000)">
                                    <g id="Group-23" transform="translate(257.000000, 4.000000)">
                                        <path d="M115.542309,0 L91.0602565,0 C89.3771154,0 88.0153013,1.37711544 88.0153013,3.06025654 L88,21.4217958 C88,23.1049369 89.3771154,24.4820523 91.0602565,24.4820523 L115.542309,24.4820523 C117.22545,24.4820523 118.602565,23.1049369 118.602565,21.4217958 L118.602565,3.06025654 C118.602565,1.37711544 117.22545,0 115.542309,0 L115.542309,0 Z M115.542309,6.12051308 L103.301283,13.7711544 L91.0602565,6.12051308 L91.0602565,3.06025654 L103.301283,10.7108979 L115.542309,3.06025654 L115.542309,6.12051308 L115.542309,6.12051308 Z" id="Shape"></path>
                                    </g>
                                </g>
                            </g>
                        </g>
                    </g>
                </g>
            </g>
        </g>
    </g>
</svg>