<?xml version="1.0" encoding="UTF-8" standalone="no"?>
<svg width="15px" height="22px" viewBox="0 0 15 22" version="1.1" xmlns="http://www.w3.org/2000/svg" xmlns:xlink="http://www.w3.org/1999/xlink">
    <!-- Generator: Sketch 39.1 (31720) - http://www.bohemiancoding.com/sketch -->
    <title>Fill 1 Copy</title>
    <desc>Created with Sketch.</desc>
    <defs></defs>
    <g id="DESKTOP" stroke="none" stroke-width="1" fill="none" fill-rule="evenodd">
        <g id="HOME" transform="translate(-534.000000, -1852.000000)" fill="#FFFFFF">
            <g id="LOCALIZACION-SUPERMERCADOS" transform="translate(0.000000, 1556.000000)">
                <g id="Group-27" transform="translate(418.000000, 128.000000)">
                    <g id="Group-7" transform="translate(16.000000, 0.000000)">
                        <g id="Group-35" transform="translate(56.000000, 149.000000)">
                            <g id="Group-33">
                                <g id="Group-24" transform="translate(44.000000, 19.000000)">
                                    <g id="Group-39">
                                        <path d="M7.49053763,0 C3.36043011,0 0,3.28889474 0,7.33289474 C0,11.2228947 6.80887097,21.3633158 7.10010753,21.7921579 C7.18623656,21.9196316 7.33322581,21.9983684 7.49053763,21.9983684 C7.64784946,21.9983684 7.7938172,21.9196316 7.88096774,21.7921579 C8.1711828,21.3633158 14.980914,11.2228947 14.980914,7.33289474 C14.980914,3.28889474 11.6204839,0 7.49053763,0 L7.49053763,0 Z M7.49053763,10.5409474 C5.6833871,10.5409474 4.21349462,9.10178947 4.21349462,7.33289474 C4.21349462,5.56373684 5.6833871,4.12484211 7.49053763,4.12484211 C9.29752688,4.12484211 10.7675806,5.56373684 10.7675806,7.33289474 C10.7675806,9.10178947 9.29752688,10.5409474 7.49053763,10.5409474 L7.49053763,10.5409474 Z" id="Fill-1-Copy"></path>
                                    </g>
                                </g>
                            </g>
                        </g>
                    </g>
                </g>
            </g>
        </g>
    </g>
</svg>