<?xml version="1.0" encoding="UTF-8" standalone="no"?>
<svg width="30px" height="25px" viewBox="0 0 30 25" version="1.1" xmlns="http://www.w3.org/2000/svg" xmlns:xlink="http://www.w3.org/1999/xlink">
    <!-- Generator: Sketch 39.1 (31720) - http://www.bohemiancoding.com/sketch -->
    <title>Group</title>
    <desc>Created with Sketch.</desc>
    <defs></defs>
    <g id="DESKTOP" stroke="none" stroke-width="1" fill="none" fill-rule="evenodd">
        <g id="SUPERMERCADOS-1" transform="translate(-726.000000, -889.000000)" fill="#FFFFFF">
            <g id="PIN-NUMERO-Copy" transform="translate(693.000000, 883.000000)">
                <g id="PIN-Copy-5">
                    <g id="Group-2" transform="translate(29.000000, 0.000000)">
                        <g id="Group">
                            <path d="M28.6723063,18.7395323 L20.7627046,18.7395323 L20.7627046,7.89032938 C20.7627046,7.34550214 20.3201623,6.90403821 19.7740043,6.90403821 C19.2278463,6.90403821 18.7853041,7.34550214 18.7853041,7.89032938 L18.7853041,18.7395323 L10.8757024,18.7395323 C9.78338638,18.7395323 8.89830195,19.6224601 8.89830195,20.7121146 L8.89830195,28.602444 C8.89830195,29.6920985 9.78338638,30.5750264 10.8757024,30.5750264 L28.6723063,30.5750264 C29.7646223,30.5750264 30.6497067,29.6920985 30.6497067,28.602444 L30.6497067,20.7121146 C30.6497067,19.6224601 29.7646223,18.7395323 28.6723063,18.7395323 L28.6723063,18.7395323 Z" id="Shape"></path>
                            <path d="M21.7514048,17.7532411 L21.7514048,14.7943676 C21.7514048,13.0190435 22.3450204,12.2300105 22.937845,12.2300105 C23.5310652,12.2300105 23.5314606,12.624527 24.1242853,12.624527 C24.7175054,12.624527 24.7179009,12.2300105 25.3107255,12.2300105 C25.9039457,12.2300105 26.2994258,13.41356 26.2994258,13.41356 C26.2994258,13.41356 25.5084656,13.41356 24.7175054,14.5971094 L22.5423649,17.7532411 L21.7514048,17.7532411 L21.7514048,17.7532411 Z" id="Shape"></path>
                            <path d="M17.7966039,15.3861423 C16.4863784,15.3861423 15.4237234,16.4462081 15.4237234,17.7532411 L17.7966039,17.7532411 L17.7966039,15.3861423 L17.7966039,15.3861423 Z" id="Shape"></path>
                            <path d="M23.3333251,17.7532411 L25.2264883,14.9821574 C26.3401602,13.3520154 27.8109507,14.3521146 29.481854,11.9072961 C30.3728707,10.6030246 30.5955259,10.277154 30.5955259,10.277154 L31.7392544,11.0551405 C31.7392544,11.0551405 31.627729,11.2180758 30.6255824,12.6852826 C28.9546791,15.1301011 30.4254695,16.1234936 29.3117976,17.7536356 L23.3333251,17.7536356 L23.3333251,17.7532411 Z" id="Shape"></path>
                            <path d="M14.8305033,17.7532411 C14.8305033,16.9898517 15.122763,16.2962918 15.5985256,15.7715849 C15.1646839,15.2938254 14.5394299,14.9916258 13.841803,14.9916258 C12.5315775,14.9916258 11.4689225,16.0516916 11.4689225,17.3587246 C11.4689225,17.4936493 11.4827643,17.6246287 11.5045157,17.7532411 L14.8305033,17.7532411 L14.8305033,17.7532411 Z" id="Shape"></path>
                            <path d="M17.7966039,13.8203064 C17.376604,13.4451213 16.8229319,13.2163017 16.2146836,13.2163017 C15.3299946,13.2163017 14.5595994,13.7003734 14.1514639,14.4164208 C14.8977349,14.4941406 15.560164,14.8488109 16.037904,15.3743068 C16.5302767,15.0113517 17.1373386,14.7939731 17.7966039,14.7939731 L17.7966039,13.8203064 L17.7966039,13.8203064 Z" id="Shape"></path>
                            <path d="M33.6158074,15.7806588 C33.0225872,15.1888841 31.4406669,14.7943676 30.4519667,15.3861423 C30.6030401,16.288796 30.5223621,17.3050704 30.037899,18.087002 C30.7110061,18.4361491 31.2318534,19.0346306 31.4790285,19.7605409 C32.4491411,19.2476695 33.6158074,18.3067477 33.6158074,17.7532411 C33.6158074,16.9642082 32.6271072,16.7669499 33.6158074,15.7806588 L33.6158074,15.7806588 Z" id="Shape"></path>
                            <path d="M11.161239,16.098639 C10.4932731,15.9317586 8.92084432,15.5396092 8.30508182,15.3861423 C6.90864163,15.0377843 7.71186169,13.8080764 7.71186169,13.8080764 C7.71186169,13.8080764 7.51412165,13.2163017 6.52542143,13.2163017 C5.73446126,13.2163017 5.33898117,14.2025929 5.33898117,14.2025929 C5.33898117,14.2025929 4.15254091,14.3753911 4.15254091,15.1888841 C4.15254091,16.1751752 4.74576104,16.1751752 4.74576104,16.1751752 C4.74576104,16.1751752 4.94350108,17.3587246 5.73446126,17.3587246 C6.52542143,17.3587246 7.51412165,16.3724335 8.89830195,16.3724335 C9.59671978,16.3724335 10.4901093,16.5689027 10.9559848,16.684496 C11.0038379,16.479742 11.0734424,16.2840618 11.161239,16.098639 L11.161239,16.098639 Z" id="Shape"></path>
                            <path d="M10.8757024,17.3587246 C10.8757024,17.3247962 10.8796572,17.2916568 10.8808436,17.2577284 C10.3987534,17.1409516 9.5607311,16.9642082 8.89830195,16.9642082 C7.51412165,16.9642082 6.12994134,17.9504993 6.12994134,18.7395323 C6.12994134,19.331307 6.92090152,19.331307 6.92090152,19.331307 C6.92090152,19.331307 8.10734178,18.1477576 9.09604199,17.9504993 C9.83954456,17.8021612 10.5826516,17.7654711 10.9053634,17.7563972 C10.8879623,17.6258123 10.8757024,17.4940438 10.8757024,17.3587246 L10.8757024,17.3587246 Z" id="Shape"></path>
                            <path d="M11.4748547,15.5810334 C11.9189789,14.9935984 12.5754758,14.5777781 13.3320292,14.4464041 C12.9072836,13.7500825 13.2050801,12.2008163 12.6553628,11.8354941 C12.6553628,11.8354941 12.2598827,12.0327523 11.8644026,12.0327523 C11.4689225,12.0327523 11.2711825,11.6382358 10.8757024,11.6382358 C10.4802223,11.6382358 10.2824823,12.0327523 9.88700217,12.0327523 C9.49152208,12.0327523 8.89830195,11.6382358 8.50282186,11.6382358 C8.10734178,11.6382358 7.71186169,11.8354941 7.71186169,12.4272688 C7.71186169,13.2163017 8.30508182,13.8080764 8.30508182,13.8080764 C8.30508182,13.8080764 7.71186169,14.5971094 8.30508182,14.7943676 C9.09604199,14.9916258 11.4689225,15.5834005 11.4689225,15.5834005 C11.4689225,15.5834005 11.4712954,15.5826115 11.4748547,15.5810334 L11.4748547,15.5810334 Z" id="Shape"></path>
                        </g>
                    </g>
                </g>
            </g>
        </g>
    </g>
</svg>