<?xml version="1.0" encoding="UTF-8" standalone="no"?>
<svg width="24px" height="40px" viewBox="0 0 24 40" version="1.1" xmlns="http://www.w3.org/2000/svg" xmlns:xlink="http://www.w3.org/1999/xlink">
    <!-- Generator: Sketch 39.1 (31720) - http://www.bohemiancoding.com/sketch -->
    <title>Group</title>
    <desc>Created with Sketch.</desc>
    <defs></defs>
    <g id="DESKTOP" stroke="none" stroke-width="1" fill="none" fill-rule="evenodd">
        <g id="ATENCIÓN-AL-CLIENTE" transform="translate(-229.000000, -1585.000000)" fill="#FFFFFF">
            <g id="banners-verdes" transform="translate(-3.000000, 1421.000000)">
                <g id="Group-8" transform="translate(230.000000, 95.000000)">
                    <g id="Group-7">
                        <g id="Group-6" transform="translate(2.000000, 53.000000)">
                            <g id="Group" transform="translate(0.000000, 16.000000)">
                                <polygon id="Fill-138" points="0.100363636 29.3454545 23.3730909 29.3454545 23.3730909 6.21090909 0.100363636 6.21090909"></polygon>
                                <path d="M21.4036364,0.363636364 L2.06981818,0.363636364 C0.982545455,0.363636364 0.100363636,1.24363636 0.100363636,2.33454545 L0.100363636,4.75636364 L23.3730909,4.75636364 L23.3730909,2.33454545 C23.3730909,1.24363636 22.4909091,0.363636364 21.4036364,0.363636364" id="Fill-139"></path>
                                <path d="M9.55490909,35.2727273 L13.9185455,35.2727273 L13.9185455,33.8181818 L9.55490909,33.8181818 L9.55490909,35.2727273 Z M0.100363636,37.6654545 C0.100363636,38.7563636 0.982545455,39.6363636 2.06981818,39.6363636 L21.4036364,39.6363636 C22.4909091,39.6363636 23.3730909,38.7563636 23.3730909,37.6654545 L23.3730909,30.8 L0.100363636,30.8 L0.100363636,37.6654545 L0.100363636,37.6654545 Z" id="Fill-140"></path>
                            </g>
                        </g>
                    </g>
                </g>
            </g>
        </g>
    </g>
</svg>