<?xml version="1.0" encoding="UTF-8" standalone="no"?>
<svg width="32px" height="40px" viewBox="0 0 32 40" version="1.1" xmlns="http://www.w3.org/2000/svg" xmlns:xlink="http://www.w3.org/1999/xlink">
    <!-- Generator: Sketch 39.1 (31720) - http://www.bohemiancoding.com/sketch -->
    <title>Group 21</title>
    <desc>Created with Sketch.</desc>
    <defs></defs>
    <g id="DESKTOP" stroke="none" stroke-width="1" fill="none" fill-rule="evenodd">
        <g id="HOME" transform="translate(-1183.000000, -3561.000000)" fill="#FFA100">
            <g id="Group-21" transform="translate(1183.000000, 3561.000000)">
                <path d="M27.7423797,3.61690722 L24.8684557,3.61690722 L24.8684557,1.80907216 C24.8684557,0.811134021 24.0729114,0 23.0922532,0 C22.112,0 21.3156456,0.811134021 21.3156456,1.80907216 L21.3156456,3.61690722 L17.7632405,3.61690722 L17.7632405,1.80907216 C17.7632405,0.811134021 16.9668861,0 15.9862278,0 C15.0055696,0 14.2100253,0.811134021 14.2100253,1.80907216 L14.2100253,3.61690722 L10.6572152,3.61690722 L10.6572152,1.80907216 C10.6572152,0.811134021 9.86248101,0 8.88222785,0 C7.90035443,0 7.10602532,0.811134021 7.10602532,1.80907216 L7.10602532,3.61690722 L4.23250633,3.61690722 C1.89529114,3.61690722 0,5.54680412 0,7.92783505 L0,35.4746392 C0,37.8552577 1.89529114,39.7830928 4.23250633,39.7830928 L27.7423797,39.7830928 C30.0779747,39.7830928 31.9720506,37.8552577 31.9720506,35.4746392 L31.9720506,7.92783505 C31.9720506,5.54680412 30.0779747,3.61690722 27.7423797,3.61690722 L27.7423797,3.61690722 Z M28.4216709,34.7616495 C28.4216709,35.537732 27.8035443,36.1665979 27.0424304,36.1665979 L4.93407595,36.1665979 C4.17296203,36.1665979 3.55362025,35.537732 3.55362025,34.7616495 L3.55362025,8.63917526 C3.55362025,7.86597938 4.17296203,7.2342268 4.93407595,7.2342268 L7.10643038,7.2342268 L7.10643038,9.0428866 C7.10643038,10.0412371 7.90075949,10.8498969 8.88263291,10.8498969 C9.86288608,10.8498969 10.6576203,10.0412371 10.6576203,9.0428866 L10.6576203,7.2342268 L14.2104304,7.2342268 L14.2104304,9.0428866 C14.2104304,10.0412371 15.0055696,10.8498969 15.9866329,10.8498969 C16.9672911,10.8498969 17.7636456,10.0412371 17.7636456,9.0428866 L17.7636456,7.2342268 L21.3160506,7.2342268 L21.3160506,9.0428866 C21.3160506,10.0412371 22.1124051,10.8498969 23.0926582,10.8498969 C24.0733165,10.8498969 24.8688608,10.0412371 24.8688608,9.0428866 L24.8688608,7.2342268 L27.0424304,7.2342268 C27.8035443,7.2342268 28.4216709,7.86597938 28.4216709,8.63917526 L28.4216709,34.7616495 L28.4216709,34.7616495 Z" id="Shape"></path>
                <rect id="Rectangle-path" x="7.10683544" y="14.4672165" width="17.7620253" height="3.61690722"></rect>
                <rect id="Rectangle-path" x="7.10683544" y="21.7006186" width="17.7620253" height="3.61690722"></rect>
                <rect id="Rectangle-path" x="7.10683544" y="28.934433" width="17.7620253" height="3.61608247"></rect>
            </g>
        </g>
    </g>
</svg>