<?xml version="1.0" encoding="UTF-8" standalone="no"?>
<svg width="24px" height="24px" viewBox="0 0 24 24" version="1.1" xmlns="http://www.w3.org/2000/svg" xmlns:xlink="http://www.w3.org/1999/xlink">
    <!-- Generator: Sketch 39.1 (31720) - http://www.bohemiancoding.com/sketch -->
    <title>1470245988_parking</title>
    <desc>Created with Sketch.</desc>
    <defs></defs>
    <g id="DESKTOP" stroke="none" stroke-width="1" fill="none" fill-rule="evenodd">
        <g id="SUPERMERCADOS-2" transform="translate(-603.000000, -1058.000000)" fill="#8D8D8D">
            <g id="Group-18" transform="translate(542.000000, 832.000000)">
                <g id="1470245988_parking" transform="translate(61.000000, 226.000000)">
                    <path d="M15.0947,9.2095 C15.0947,10.1999 14.7831,10.919 14.1601,11.3666 C13.537,11.8143 12.5324,12.038 11.1464,12.038 L9.7444,12.038 L9.7444,6.5333 L11.5183,6.5333 C12.7453,6.5333 13.6482,6.7556 14.2268,7.1999 C14.8053,7.6444 15.0947,8.3143 15.0947,9.2095 L15.0947,9.2095 Z M24,0 L24,24 L0,24 L0,0 L24,0 L24,0 Z M16.9162,9.1333 C16.9162,6.4032 15.171,5.0381 11.6805,5.0381 L7.9896,5.0381 L7.9896,18.9619 L9.7444,18.9619 L9.7444,13.5429 L11.3466,13.5429 C13.1141,13.5429 14.4843,13.1636 15.457,12.4049 C16.43,11.6461 16.9162,10.5556 16.9162,9.1333 L16.9162,9.1333 Z" id="Shape"></path>
                </g>
            </g>
        </g>
    </g>
</svg>