<?xml version="1.0" encoding="UTF-8" standalone="no"?>
<svg width="24px" height="24px" viewBox="0 0 24 24" version="1.1" xmlns="http://www.w3.org/2000/svg" xmlns:xlink="http://www.w3.org/1999/xlink">
    <!-- Generator: Sketch 39.1 (31720) - http://www.bohemiancoding.com/sketch -->
    <title>Shape</title>
    <desc>Created with Sketch.</desc>
    <defs></defs>
    <g id="DESKTOP" stroke="none" stroke-width="1" fill="none" fill-rule="evenodd">
        <g id="SUPERMERCADOS-2" transform="translate(-603.000000, -1012.000000)" fill="#8D8D8D">
            <g id="Group-18" transform="translate(542.000000, 832.000000)">
                <g id="Group-6" transform="translate(61.000000, 179.000000)">
                    <path d="M4.82666667,11.3866667 C6.74666667,15.16 9.84,18.24 13.6133333,20.1733333 L16.5466667,17.24 C16.9066667,16.88 17.44,16.76 17.9066667,16.92 C19.4,17.4133333 21.0133333,17.68 22.6666667,17.68 C23.4,17.68 24,18.28 24,19.0133333 L24,23.6666667 C24,24.4 23.4,25 22.6666667,25 C10.1466667,25 0,14.8533333 0,2.33333333 C0,1.6 0.6,1 1.33333333,1 L6,1 C6.73333333,1 7.33333333,1.6 7.33333333,2.33333333 C7.33333333,4 7.6,5.6 8.09333333,7.09333333 C8.24,7.56 8.13333333,8.08 7.76,8.45333333 L4.82666667,11.3866667 L4.82666667,11.3866667 Z" id="Shape"></path>
                </g>
            </g>
        </g>
    </g>
</svg>