<?xml version="1.0" encoding="UTF-8" standalone="no"?>
<svg width="32px" height="45px" viewBox="0 0 32 45" version="1.1" xmlns="http://www.w3.org/2000/svg" xmlns:xlink="http://www.w3.org/1999/xlink">
    <!-- Generator: Sketch 39.1 (31720) - http://www.bohemiancoding.com/sketch -->
    <title>Group 12</title>
    <desc>Created with Sketch.</desc>
    <defs></defs>
    <g id="DESKTOP" stroke="none" stroke-width="1" fill="none" fill-rule="evenodd">
        <g id="ATENCIÓN-AL-CLIENTE" transform="translate(-1184.000000, -1175.000000)" fill="#FFFFFF">
            <g id="Group-13" transform="translate(803.000000, 1017.000000)">
                <g id="Group-12" transform="translate(381.000000, 158.000000)">
                    <polygon id="Shape" points="12 36.1607143 20.7430923 36.1607143 20.7430923 44.8112277 12 44.8112277"></polygon>
                    <path d="M0,16.050971 C0.193646154,6.75793527 6.18595385,0 15.6575846,0 C27.7715077,0 31.7024615,7.60339286 31.7024615,12.5425446 C31.7024615,24.9553125 21.0714769,23.2643973 19.9752,31.1279799 L19.9752,33.598192 L11.2762615,33.598192 L11.2762615,30.673125 C12.1788923,19.4308929 21.7792,20.4710156 21.5861846,13.4522545 C21.5861846,9.48833705 19.5235692,7.60402902 16.1092154,7.60402902 C11.4699077,7.60402902 9.47226154,11.4375335 9.47226154,16.0516071 L0,16.0516071 L0,16.050971 Z" id="Shape"></path>
                </g>
            </g>
        </g>
    </g>
</svg>