<?xml version="1.0" encoding="UTF-8" standalone="no"?>
<svg width="59px" height="45px" viewBox="0 0 59 45" version="1.1" xmlns="http://www.w3.org/2000/svg" xmlns:xlink="http://www.w3.org/1999/xlink">
    <!-- Generator: Sketch 39.1 (31720) - http://www.bohemiancoding.com/sketch -->
    <title>Shape</title>
    <desc>Created with Sketch.</desc>
    <defs></defs>
    <g id="DESKTOP" stroke="none" stroke-width="1" fill="none" fill-rule="evenodd">
        <g id="SALA-DE-PERNSA" transform="translate(-233.000000, -2715.000000)" fill="#FFA100">
            <path d="M265.043245,2736.17647 L283.735138,2736.17647 L283.735138,2740.14706 L265.043245,2740.14706 L265.043245,2736.17647 Z M265.043245,2729.55882 L283.735138,2729.55882 L283.735138,2733.52941 L265.043245,2733.52941 L265.043245,2729.55882 Z M265.043245,2742.79412 L283.735138,2742.79412 L283.735138,2746.76471 L265.043245,2746.76471 L265.043245,2742.79412 Z M286.405409,2715 L238.340541,2715 C235.403243,2715 233,2717.38235 233,2720.29412 L233,2754.70588 C233,2757.61765 235.403243,2760 238.340541,2760 L286.405409,2760 C289.342706,2760 291.74595,2757.61765 291.74595,2754.70588 L291.74595,2720.29412 C291.74595,2717.38235 289.342706,2715 286.405409,2715 L286.405409,2715 Z M286.405409,2754.70588 L262.372975,2754.70588 L262.372975,2720.29412 L286.405409,2720.29412 L286.405409,2754.70588 L286.405409,2754.70588 Z" id="Shape"></path>
        </g>
    </g>
</svg>