<?xml version="1.0" encoding="UTF-8" standalone="no"?>
<svg width="24px" height="24px" viewBox="0 0 24 24" version="1.1" xmlns="http://www.w3.org/2000/svg" xmlns:xlink="http://www.w3.org/1999/xlink">
    <!-- Generator: Sketch 39.1 (31720) - http://www.bohemiancoding.com/sketch -->
    <title>Group 13</title>
    <desc>Created with Sketch.</desc>
    <defs></defs>
    <g id="DESKTOP" stroke="none" stroke-width="1" fill="none" fill-rule="evenodd">
        <g id="SUPERMERCADOS-2" transform="translate(-865.000000, -1058.000000)" fill="#8D8D8D">
            <g id="Group-18" transform="translate(542.000000, 832.000000)">
                <g id="Group-13" transform="translate(323.000000, 226.000000)">
                    <rect id="Rectangle-path" x="5" y="0" width="3" height="3"></rect>
                    <rect id="Rectangle-path" x="15" y="0" width="3" height="3"></rect>
                    <path d="M24,22.3076923 L24,3.69230769 C24,2.75730769 23.2328571,2 22.2857143,2 L20.5714286,2 L20.5714286,3.69230769 C20.5714286,4.62730769 19.8042857,5.38461538 18.8571429,5.38461538 L15.4285714,5.38461538 C14.4805714,5.38461538 13.7142857,4.62730769 13.7142857,3.69230769 L13.7142857,2 L10.2857143,2 L10.2857143,3.69230769 C10.2857143,4.62730769 9.51771429,5.38461538 8.57057143,5.38461538 L5.142,5.38461538 C4.19485714,5.38461538 3.42857143,4.62730769 3.42857143,3.69230769 L3.42857143,2 L1.71342857,2 C0.766285714,2 0,2.75730769 0,3.69230769 L0,22.3076923 C0,23.2426923 0.766285714,24 1.71342857,24 L22.2857143,24 C23.2328571,24 24,23.2426923 24,22.3076923 L24,22.3076923 Z" id="Shape"></path>
                </g>
            </g>
        </g>
    </g>
</svg>