<?xml version="1.0" encoding="utf-8"?>
<!-- Generator: Adobe Illustrator 16.0.0, SVG Export Plug-In . SVG Version: 6.00 Build 0)  -->
<!DOCTYPE svg PUBLIC "-//W3C//DTD SVG 1.1//EN" "http://www.w3.org/Graphics/SVG/1.1/DTD/svg11.dtd">
<svg version="1.1" id="Capa_1" xmlns="http://www.w3.org/2000/svg" xmlns:xlink="http://www.w3.org/1999/xlink" x="0px" y="0px"
	 width="32px" height="32px" viewBox="0 0 32 32" enable-background="new 0 0 32 32" xml:space="preserve">
<title>search copy 4</title>
<desc>Created with Sketch.</desc>
<g>
	<polygon points="27.224,30.731 27.219,30.727 27.219,30.727 	"/>
	<path d="M30.725,27.217l-7.545-7.543c1.311-1.965,2.099-4.31,2.099-6.785c0-3.424-1.387-6.525-3.628-8.765
		C19.411,1.885,16.31,0.5,12.889,0.5c-3.424,0-6.525,1.385-8.764,3.625C1.885,6.364,0.5,9.465,0.5,12.889
		c0,3.421,1.385,6.522,3.625,8.761c2.239,2.241,5.34,3.628,8.765,3.628c2.475,0,4.82-0.788,6.785-2.099l7.545,7.547
		c0.46,0.454,1.081,0.666,1.7,0.666c0.62-0.001,1.255-0.211,1.771-0.636l0.019-0.016l0.018-0.018
		c0.497-0.496,0.776-1.118,0.774-1.753C31.502,28.335,31.223,27.714,30.725,27.217z M12.889,21.478
		c-4.758-0.001-8.588-3.831-8.588-8.588c0-4.758,3.831-8.588,8.588-8.588c4.757,0,8.588,3.831,8.589,8.588
		C21.478,17.646,17.646,21.477,12.889,21.478z"/>
</g>
</svg>
