<?xml version="1.0" encoding="UTF-8" standalone="no"?>
<svg width="45px" height="23px" viewBox="0 0 45 23" version="1.1" xmlns="http://www.w3.org/2000/svg" xmlns:xlink="http://www.w3.org/1999/xlink">
    <!-- Generator: Sketch 39.1 (31720) - http://www.bohemiancoding.com/sketch -->
    <title>Shape</title>
    <desc>Created with Sketch.</desc>
    <defs></defs>
    <g id="DESKTOP" stroke="none" stroke-width="1" fill="none" fill-rule="evenodd">
        <g id="ACTUALIDAD" transform="translate(-255.000000, -565.000000)" fill="#009966">
            <path d="M268.695652,565.964286 L268.695652,569.821429 L300,569.821429 L300,565.964286 L268.695652,565.964286 L268.695652,565.964286 Z M268.695652,574.571429 L268.695652,578.428571 L300,578.428571 L300,574.571429 L268.695652,574.571429 L268.695652,574.571429 Z M268.695652,583.178571 L268.695652,587.035714 L300,587.035714 L300,583.178571 L268.695652,583.178571 L268.695652,583.178571 Z M255,565 L255,570.785714 L260.869565,570.785714 L260.869565,565 L255,565 L255,565 Z M255,573.607143 L255,579.392857 L260.869565,579.392857 L260.869565,573.607143 L255,573.607143 L255,573.607143 Z M255,582.214286 L255,588 L260.869565,588 L260.869565,582.214286 L255,582.214286 L255,582.214286 Z" id="Shape"></path>
        </g>
    </g>
</svg>