<?xml version="1.0" encoding="UTF-8" standalone="no"?>
<svg width="24px" height="24px" viewBox="0 0 24 24" version="1.1" xmlns="http://www.w3.org/2000/svg" xmlns:xlink="http://www.w3.org/1999/xlink">
    <!-- Generator: Sketch 39.1 (31720) - http://www.bohemiancoding.com/sketch -->
    <title>Group 9</title>
    <desc>Created with Sketch.</desc>
    <defs></defs>
    <g id="DESKTOP" stroke="none" stroke-width="1" fill="none" fill-rule="evenodd">
        <g id="ACTUALIDAD" transform="translate(-211.000000, -564.000000)" fill="#8D8D8D">
            <g id="Group-9" transform="translate(211.000000, 564.000000)">
                <path d="M3.13043478,17.7391304 C1.40191304,17.7391304 0,19.1405217 0,20.8690435 C0,22.598087 1.40191304,23.9994783 3.13043478,23.9994783 C4.85895652,23.9994783 6.26086957,22.598087 6.26086957,20.8690435 C6.26086957,19.1405217 4.85895652,17.7391304 3.13043478,17.7391304" id="Fill-89"></path>
                <path d="M3.13043478,0 C1.40191304,0 0,1.4013913 0,3.12991304 C0,4.85895652 1.40191304,6.26034783 3.13043478,6.26034783 C4.85895652,6.26034783 6.26086957,4.85895652 6.26086957,3.12991304 C6.26086957,1.4013913 4.85895652,0 3.13043478,0" id="Fill-90"></path>
                <path d="M3.13043478,8.84765217 C1.40191304,8.84765217 0,10.2490435 0,11.9775652 C0,13.7066087 1.40191304,15.108 3.13043478,15.108 C4.85895652,15.108 6.26086957,13.7066087 6.26086957,11.9775652 C6.26086957,10.2490435 4.85895652,8.84765217 3.13043478,8.84765217" id="Fill-91"></path>
                <path d="M12,17.7391304 C10.2714783,17.7391304 8.86956522,19.1405217 8.86956522,20.8690435 C8.86956522,22.598087 10.2714783,23.9994783 12,23.9994783 C13.7285217,23.9994783 15.1304348,22.598087 15.1304348,20.8690435 C15.1304348,19.1405217 13.7285217,17.7391304 12,17.7391304" id="Fill-92"></path>
                <path d="M12,0 C10.2714783,0 8.86956522,1.4013913 8.86956522,3.12991304 C8.86956522,4.85895652 10.2714783,6.26034783 12,6.26034783 C13.7285217,6.26034783 15.1304348,4.85895652 15.1304348,3.12991304 C15.1304348,1.4013913 13.7285217,0 12,0" id="Fill-93"></path>
                <path d="M12,8.84765217 C10.2714783,8.84765217 8.86956522,10.2490435 8.86956522,11.9775652 C8.86956522,13.7066087 10.2714783,15.108 12,15.108 C13.7285217,15.108 15.1304348,13.7066087 15.1304348,11.9775652 C15.1304348,10.2490435 13.7285217,8.84765217 12,8.84765217" id="Fill-94"></path>
                <path d="M20.8695652,17.7391304 C19.1410435,17.7391304 17.7391304,19.1405217 17.7391304,20.8690435 C17.7391304,22.598087 19.1410435,23.9994783 20.8695652,23.9994783 C22.598087,23.9994783 24,22.598087 24,20.8690435 C24,19.1405217 22.598087,17.7391304 20.8695652,17.7391304" id="Fill-95"></path>
                <path d="M20.8695652,6.26034783 C22.598087,6.26034783 24,4.85895652 24,3.12991304 C24,1.4013913 22.598087,0 20.8695652,0 C19.1410435,0 17.7391304,1.4013913 17.7391304,3.12991304 C17.7391304,4.85895652 19.1410435,6.26034783 20.8695652,6.26034783" id="Fill-96"></path>
                <path d="M20.8695652,8.84765217 C19.1410435,8.84765217 17.7391304,10.2490435 17.7391304,11.9775652 C17.7391304,13.7066087 19.1410435,15.108 20.8695652,15.108 C22.598087,15.108 24,13.7066087 24,11.9775652 C24,10.2490435 22.598087,8.84765217 20.8695652,8.84765217" id="Fill-97"></path>
            </g>
        </g>
    </g>
</svg>