<?xml version="1.0" encoding="UTF-8" standalone="no"?>
<svg width="37px" height="37px" viewBox="0 0 37 37" version="1.1" xmlns="http://www.w3.org/2000/svg" xmlns:xlink="http://www.w3.org/1999/xlink">
    <!-- Generator: Sketch 39.1 (31720) - http://www.bohemiancoding.com/sketch -->
    <title>Shape</title>
    <desc>Created with Sketch.</desc>
    <defs></defs>
    <g id="DESKTOP" stroke="none" stroke-width="1" fill="none" fill-rule="evenodd">
        <g id="CONOCENOS" transform="translate(-1182.000000, -3497.000000)" fill="#FFA100">
            <path d="M1200.4815,3497 C1190.2695,3497 1182,3505.288 1182,3515.5 C1182,3525.712 1190.2695,3534 1200.4815,3534 C1210.712,3534 1219,3525.712 1219,3515.5 C1219,3505.288 1210.712,3497 1200.4815,3497 L1200.4815,3497 Z M1213,3508 L1207.54965,3508 C1206.95843,3505.54213 1206.10855,3503.18258 1205,3501 C1208.39954,3502.23876 1211.22633,3504.75562 1213,3508 L1213,3508 Z M1200.5,3500 C1202.02094,3502.12121 1203.21204,3504.47222 1204,3507 L1197,3507 C1197.78796,3504.47222 1198.97906,3502.12121 1200.5,3500 L1200.5,3500 Z M1185.5,3519 C1185.19231,3517.88 1185,3516.7075 1185,3515.5 C1185,3514.2925 1185.19231,3513.12 1185.5,3512 L1192,3512 C1191.84615,3513.155 1191.73077,3514.31 1191.73077,3515.5 C1191.73077,3516.69 1191.84615,3517.845 1192,3519 L1185.5,3519 L1185.5,3519 Z M1187,3522 L1192.45035,3522 C1193.04157,3524.45787 1193.89145,3526.81742 1195,3529 C1191.60046,3527.76124 1188.77367,3525.26404 1187,3522 L1187,3522 Z M1192.45035,3508 L1187,3508 C1188.77367,3504.73596 1191.60046,3502.23876 1195,3501 C1193.89145,3503.18258 1193.04157,3505.54213 1192.45035,3508 L1192.45035,3508 Z M1200.5,3529 C1198.97906,3526.87879 1197.78796,3524.52778 1197,3522 L1204,3522 C1203.21204,3524.52778 1202.02094,3526.87879 1200.5,3529 L1200.5,3529 Z M1205.68,3519 L1196.32,3519 C1196.14,3517.845 1196,3516.69 1196,3515.5 C1196,3514.31 1196.14,3513.1375 1196.32,3512 L1205.68,3512 C1205.86,3513.1375 1206,3514.31 1206,3515.5 C1206,3516.69 1205.86,3517.845 1205.68,3519 L1205.68,3519 Z M1205,3529 C1206.10855,3526.81742 1206.95843,3524.45787 1207.54965,3522 L1213,3522 C1211.22633,3525.24438 1208.39954,3527.76124 1205,3529 L1205,3529 Z M1208,3519 C1208.15385,3517.845 1208.26923,3516.69 1208.26923,3515.5 C1208.26923,3514.31 1208.15385,3513.155 1208,3512 L1214.5,3512 C1214.80769,3513.12 1215,3514.2925 1215,3515.5 C1215,3516.7075 1214.80769,3517.88 1214.5,3519 L1208,3519 L1208,3519 Z" id="Shape"></path>
        </g>
    </g>
</svg>